<svg width="32" height="30" viewBox="0 0 32 30" fill="none" xmlns="http://www.w3.org/2000/svg">
<rect width="32" height="30" rx="5" fill="#F4F1EB"/>
<path d="M15.3305 26.9999C15.1453 24.1696 14.0006 21.9052 12.4305 19.8141C11.7838 18.9527 11.1465 18.0804 10.6923 17.0902C10.3275 16.2954 10.1753 15.4667 10.1953 14.5909C10.2061 14.1188 10.3269 13.8747 10.8563 13.8897C11.3521 13.9038 11.8516 13.8147 12.3309 13.6638C12.9849 13.4581 13.3611 12.7771 13.2073 12.1176C13.1784 11.9945 13.114 11.923 13.0135 11.8657C12.4892 11.5654 12.0981 11.1199 11.7057 10.6697C11.2293 10.1233 10.5531 10.1073 9.91235 10.0999C9.50349 10.0951 9.30938 9.95826 9.22025 9.57146C9.15364 9.28208 9.03152 9.00616 8.94398 8.72127C8.83772 8.37453 8.69562 8.31556 8.41618 8.58924C6.8423 10.1316 5.69218 11.9246 5.2091 14.108C4.74252 16.2176 4.93315 18.299 5.51963 20.3576C5.71089 21.029 5.70867 21.0329 5.00769 20.9733C3.04684 20.806 1.52529 19.2963 1.11707 17.1129C0.912801 16.0202 0.96926 15.061 1.33847 14.2413C1.31151 15.8756 1.58555 17.3011 2.58501 18.4861C3.00877 18.9886 3.515 19.3844 4.2163 19.6436C3.1274 14.1243 4.86939 9.74579 9.28971 6.36169C9.55424 7.12344 9.81783 7.83807 10.0472 8.5636C10.1433 8.86804 10.2828 9.03372 10.6175 9.05135C11.5636 9.10134 12.3084 9.53461 12.8587 10.3137C13.1134 10.6745 13.4598 10.9318 13.8661 11.0732C14.2052 11.1911 14.2949 11.3978 14.3146 11.7362C14.4304 13.7426 13.7592 14.596 11.7489 14.9149C11.4088 14.9687 11.3295 15.0953 11.3778 15.4289C11.5157 16.3823 11.9665 17.1895 12.4863 17.966C13.1071 18.8931 13.756 19.8013 14.3701 20.7332C14.7694 21.3395 15.1041 21.9878 15.3699 22.6653C15.6262 23.3187 15.8472 23.9866 16.1073 24.7144C16.8407 23.927 17.4652 23.1329 17.5921 22.0635C17.6822 21.3024 17.3396 20.6916 16.8273 20.1606C16.3957 19.7132 15.8437 19.4363 15.3486 19.0796C13.7471 17.926 13.2542 16.4396 13.8509 14.6342C13.9505 14.3329 14.0916 14.1669 14.4164 14.1262C14.8738 14.0692 15.3245 13.9583 15.7803 13.8843C16.7595 13.7253 17.619 13.4725 18.4073 12.7034C19.5761 11.5628 21.129 11.4798 22.6842 11.8266C23.0804 11.9147 23.4708 12.0112 23.8775 12.0589C25.7279 12.2755 26.7908 13.4606 27.4353 15.1091C27.9264 16.365 28.0253 17.6824 27.9343 19.0194C27.9244 19.1642 27.92 19.3097 27.9051 19.6142C29.0143 18.366 29.4695 17.0207 29.5237 15.5113C29.5779 14.0035 29.099 12.6707 28.129 11.4199C29.4508 12.132 30.4232 14.3919 30.2634 16.4278C30.0518 19.1232 28.5604 20.9092 26.0924 22.1013C26.2418 21.5978 26.3658 21.1982 26.479 20.7954C27.0037 18.9297 27.0424 17.0748 26.2992 15.2555C25.7612 13.9394 24.8671 13.1139 23.3576 13.1225C22.982 13.1248 22.6093 12.9322 22.2294 12.8665C20.6526 12.5928 19.2795 12.8847 18.3679 14.3602C18.2483 14.5537 18.0786 14.5675 17.9007 14.6021C17.0119 14.7742 16.1254 14.9617 15.2322 15.1078C14.9119 15.1604 14.7961 15.3187 14.7536 15.6119C14.6394 16.4018 14.8183 17.0905 15.3918 17.6622C15.7369 18.0061 16.1327 18.2775 16.5406 18.5352C17.0446 18.8537 17.5109 19.2181 17.8887 19.6876C18.7581 20.7685 18.9481 21.9619 18.4402 23.255C17.8335 24.8009 16.6424 25.852 15.3305 26.9999Z" fill="#003D4F" stroke="#003D4F" stroke-width="0.3"/>
<path d="M15.8565 7.51517C15.0559 7.23829 14.4507 6.7076 13.9946 6.00546C13.4636 5.18892 13.5315 4.22208 14.136 3.58147C14.7381 2.94375 15.7099 2.81556 16.5336 3.27158C16.86 3.45233 17.1623 3.67665 17.3872 3.97468C17.6429 4.31373 17.8462 4.37847 18.2338 4.10255C18.9941 3.56128 19.866 3.41643 20.7675 3.6994C22.0908 4.11441 22.7039 5.29243 22.3293 6.64735C21.653 9.09153 19.1203 10.4686 16.5926 9.77957C15.7521 9.55044 14.9921 9.19088 14.3869 8.52591C14.9001 8.71274 15.4057 8.92617 15.9281 9.0816C17.908 9.67061 19.9923 8.84317 21.0482 7.06075C21.2889 6.6544 21.4475 6.2096 21.3619 5.73179C21.2017 4.83833 20.2301 4.42365 19.2405 4.77264C18.6655 4.97517 18.2994 5.40908 17.9217 5.84331C17.8151 5.96605 17.7688 6.14551 17.5639 6.21569C17.3437 5.6193 17.0396 5.0774 16.5581 4.65022C16.3313 4.44897 16.088 4.29707 15.7965 4.21375C15.0226 3.99231 14.4091 4.54479 14.5611 5.3405C14.6762 5.94458 14.9921 6.4413 15.3911 6.89539C15.5596 7.08735 15.8006 7.22098 15.878 7.48953L15.8571 7.51485L15.8565 7.51517Z" fill="#F6424F"/>
</svg>
