<svg width="118" height="51" viewBox="0 0 118 51" fill="none" xmlns="http://www.w3.org/2000/svg">
<path d="M30.0054 50.0003C29.6195 44.1037 27.2347 39.3862 23.9636 35.0299C22.6163 33.2353 21.2887 31.418 20.3424 29.355C19.5825 27.6992 19.2653 25.9727 19.3069 24.1481C19.3294 23.1646 19.5812 22.6559 20.6841 22.6873C21.7169 22.7167 22.7577 22.5311 23.7562 22.2166C25.1187 21.788 25.9025 20.3693 25.582 18.9953C25.5218 18.7389 25.3877 18.59 25.1782 18.4705C24.0859 17.8449 23.2711 16.9169 22.4537 15.9789C21.4612 14.8406 20.0523 14.8072 18.7175 14.7918C17.8657 14.7818 17.4613 14.4967 17.2756 13.6909C17.1368 13.088 16.8824 12.5132 16.7 11.9196C16.4787 11.1973 16.1826 11.0744 15.6004 11.6446C12.3215 14.8579 9.92541 18.5933 8.91899 23.1419C7.94694 27.537 8.34409 31.8733 9.56593 36.1622C9.9644 37.5609 9.95977 37.5689 8.49938 37.4447C4.41426 37.0962 1.24435 33.951 0.39389 29.4024C-0.0316712 27.1257 0.0859528 25.1275 0.855135 23.4197C0.798967 26.8246 1.36991 29.7943 3.45212 32.2632C4.33496 33.3101 5.38961 34.1346 6.85066 34.6747C4.5821 23.176 8.21127 14.0541 17.4203 7.00383C17.9714 8.5908 18.5206 10.0796 18.9983 11.5912C19.1986 12.2254 19.4893 12.5706 20.1865 12.6073C22.1577 12.7115 23.7092 13.6141 24.8557 15.2371C25.3864 15.9889 26.108 16.525 26.9545 16.8194C27.6609 17.0651 27.8479 17.4957 27.8889 18.2008C28.1301 22.3808 26.7318 24.1588 22.5436 24.8231C21.8352 24.9352 21.67 25.1989 21.7704 25.8939C22.0579 27.8802 22.9969 29.5619 24.08 31.1796C25.3732 33.1111 26.7252 35.0032 28.0045 36.9447C28.8365 38.2078 29.5336 39.5585 30.0874 40.9699C30.6213 42.3312 31.0819 43.7225 31.6238 45.2387C33.1515 43.5983 34.4527 41.9439 34.717 39.716C34.9047 38.1304 34.191 36.8579 33.1238 35.7516C32.2244 34.8196 31.0746 34.2428 30.0431 33.4997C26.7067 31.0962 25.6798 27.9997 26.9228 24.2382C27.1303 23.6106 27.4243 23.2648 28.101 23.18C29.0539 23.0612 29.9929 22.8302 30.9425 22.6759C32.9824 22.3448 34.7732 21.818 36.4153 20.2157C38.8504 17.8396 42.0857 17.6667 45.3256 18.389C46.151 18.5726 46.9645 18.7736 47.8116 18.8731C51.6668 19.3244 53.8811 21.7933 55.2239 25.2276C56.2468 27.8441 56.453 30.5888 56.2634 33.3742C56.2429 33.6759 56.2336 33.979 56.2026 34.6133C58.5134 32.0128 59.4617 29.2101 59.5747 26.0655C59.6877 22.9243 58.6899 20.1476 56.6691 17.5418C59.4227 19.0253 61.4487 23.7335 61.1157 27.975C60.6749 33.5905 57.5678 37.3112 52.426 39.7948C52.7373 38.746 52.9957 37.9134 53.2316 37.0742C54.3246 33.1872 54.4052 29.3229 52.8569 25.5328C51.7362 22.7908 49.8733 21.0709 46.7285 21.089C45.9461 21.0936 45.1697 20.6924 44.378 20.5555C41.0932 19.9854 38.2325 20.5936 36.3333 23.6674C36.0842 24.0706 35.7307 24.0993 35.36 24.1714C33.5084 24.53 31.6614 24.9205 29.8006 25.225C29.1332 25.3345 28.892 25.6643 28.8034 26.2752C28.5655 27.9209 28.9382 29.3556 30.133 30.5467C30.8519 31.2631 31.6766 31.8286 32.5264 32.3654C33.5765 33.029 34.5478 33.7881 35.3349 34.7662C37.1461 37.0181 37.542 39.5044 36.484 42.1983C35.2199 45.419 32.7385 47.6088 30.0054 50.0003Z" fill="#003D4F" stroke="#003D4F" stroke-width="0.3"/>
<path d="M31.1011 9.40665C29.4332 8.82981 28.1724 7.72421 27.2221 6.26142C26.1159 4.56028 26.2573 2.54602 27.5168 1.21141C28.771 -0.117188 30.7958 -0.384243 32.5119 0.565805C33.1919 0.942352 33.8216 1.4097 34.2901 2.0306C34.8227 2.73696 35.2463 2.87182 36.0538 2.29699C37.6378 1.16935 39.4544 0.867577 41.3324 1.4571C44.0893 2.32169 45.3666 4.77592 44.5862 7.59869C43.1774 12.6908 37.9008 15.5596 32.6348 14.1242C30.8837 13.6468 29.3004 12.8977 28.0395 11.5124C29.1087 11.9016 30.1621 12.3463 31.2504 12.6701C35.3752 13.8972 39.7174 12.1733 41.9172 8.45994C42.4187 7.61338 42.7492 6.6867 42.5707 5.69125C42.237 3.82988 40.213 2.96596 38.1512 3.69302C36.9532 4.11496 36.1906 5.01894 35.4036 5.92359C35.1816 6.1793 35.0851 6.55317 34.6582 6.69939C34.1996 5.45691 33.5659 4.32794 32.5628 3.43798C32.0903 3.0187 31.5835 2.70224 30.9762 2.52866C29.3638 2.06732 28.0858 3.21833 28.4023 4.87607C28.6422 6.13456 29.3004 7.1694 30.1317 8.11544C30.4825 8.51536 30.9848 8.79376 31.146 9.35324L31.1024 9.40599L31.1011 9.40665Z" fill="#F6424F"/>
<path d="M73.92 39.82V40.018H69.546V39.82C70.428 39.532 70.5 38.992 70.5 37.678V29.812C70.5 28.498 70.428 27.976 69.546 27.67V27.49H74.478C82.038 27.49 81.786 35.086 73.884 35.086V34.96C78.474 34.402 78.996 28.138 73.884 28.138H72.984V37.678C72.984 38.992 73.056 39.532 73.92 39.82ZM83.6262 34.582C84.3102 37.498 86.1282 38.65 87.8202 38.65C89.3322 38.65 90.7542 37.732 91.1862 36.364H91.3302C90.4122 39.172 88.5042 40.36 86.5962 40.36C84.0042 40.36 81.4302 38.164 81.4302 34.906C81.4302 31.972 83.2842 29.596 86.4162 29.596C89.4582 29.596 91.3662 31.468 91.4922 34.24V34.258L91.5102 34.582H83.6262ZM89.2062 33.934C89.0262 31.45 87.4782 30.226 86.0382 30.226C84.5802 30.226 83.2122 31.486 83.5362 33.934H89.2062ZM98.8468 38.236L98.9548 38.326C98.2348 39.568 97.0108 40.216 95.9488 40.216C94.7968 40.216 93.8068 39.442 93.8068 37.894V30.46H92.7988V29.812C94.3828 29.812 95.1748 28.336 95.7328 26.68H95.8228L96.1828 29.812H98.3788V30.46H96.2008V37.444C96.2008 38.47 96.7588 38.956 97.4068 38.956C97.8928 38.956 98.4148 38.704 98.8468 38.236ZM103.529 26.5V37.678C103.529 38.992 103.601 39.514 104.465 39.82V40H100.181V39.82C101.063 39.514 101.135 38.992 101.135 37.678V28.822C101.135 27.508 101.063 26.986 100.181 26.68V26.5L102.467 25.744C102.593 25.69 102.737 25.672 102.845 25.672C103.241 25.672 103.529 25.942 103.529 26.5ZM116.716 32.494C116.716 35.068 115.06 37.03 112.756 38.974V38.992C113.152 39.91 113.296 40.72 113.296 41.332C113.296 43.402 111.334 44.176 109.444 44.176C105.142 44.176 105.43 41.422 107.194 39.352H107.32C107.914 42.286 109.444 43.51 110.506 43.51C111.496 43.51 112.09 42.466 111.208 40.774L106.978 32.134C106.348 30.82 105.988 30.19 105.412 29.992V29.812H109.696V29.992C108.832 30.298 108.724 30.784 109.39 32.116L112.504 38.47C114.142 36.58 115.096 35.122 115.096 33.502C115.096 32.404 114.412 31.63 113.26 31.63C112.756 31.63 112.162 31.774 111.496 32.098L111.424 32.026C112.09 30.388 113.296 29.614 114.394 29.614C115.618 29.614 116.716 30.604 116.716 32.494Z" fill="#003D4F"/>
</svg>
