<svg width="229" height="85" viewBox="0 0 229 85" fill="none" xmlns="http://www.w3.org/2000/svg">
<path d="M50.1642 83.7612C49.5177 73.8832 45.5226 65.9803 40.043 58.6826C37.7858 55.6762 35.5618 52.6318 33.9766 49.1759C32.7036 46.4021 32.1722 43.5099 32.2419 40.4532C32.2796 38.8057 32.7014 37.9535 34.5489 38.0061C36.2792 38.0553 38.0227 37.7443 39.6954 37.2176C41.978 36.4995 43.2909 34.1229 42.754 31.8211C42.6533 31.3916 42.4285 31.1422 42.0776 30.942C40.2477 29.8941 38.8828 28.3394 37.5135 26.768C35.8508 24.8611 33.4906 24.8052 31.2545 24.7794C29.8276 24.7627 29.1501 24.2851 28.839 22.9352C28.6066 21.9252 28.1804 20.9622 27.8748 19.9679C27.504 18.7578 27.0081 18.552 26.0328 19.5071C20.5399 24.8902 16.5259 31.1478 14.8399 38.7677C13.2116 46.1304 13.8769 53.3946 15.9237 60.5794C16.5912 62.9225 16.5835 62.936 14.137 62.7279C7.29354 62.1441 1.98328 56.8752 0.558572 49.2553C-0.154334 45.4414 0.0427114 42.0939 1.33126 39.233C1.23716 44.937 2.19361 49.9118 5.68176 54.0478C7.16071 55.8015 8.92747 57.1827 11.375 58.0875C7.57472 38.8247 13.6544 23.5436 29.0815 11.7329C30.0047 14.3914 30.9246 16.8855 31.725 19.4177C32.0604 20.4802 32.5475 21.0584 33.7154 21.1199C37.0175 21.2944 39.6168 22.8065 41.5374 25.5254C42.4263 26.7848 43.6352 27.6829 45.0532 28.1761C46.2366 28.5877 46.5499 29.3091 46.6185 30.4902C47.0226 37.4927 44.6802 40.4711 37.664 41.5839C36.4773 41.7718 36.2006 42.2136 36.3688 43.3779C36.8504 46.7052 38.4234 49.5226 40.2378 52.2325C42.4042 55.4682 44.6691 58.6378 46.8122 61.8902C48.206 64.0063 49.3738 66.2689 50.3015 68.6333C51.196 70.9138 51.9675 73.2446 52.8753 75.7845C55.4346 73.0365 57.6143 70.2651 58.0571 66.5328C58.3715 63.8766 57.176 61.7448 55.3882 59.8916C53.8815 58.3302 51.9554 57.3639 50.2273 56.1191C44.6381 52.0927 42.9178 46.9054 45.0001 40.6042C45.3477 39.5529 45.8403 38.9735 46.9739 38.8315C48.5702 38.6324 50.1432 38.2454 51.734 37.987C55.1513 37.4323 58.1512 36.5499 60.9021 33.8656C64.9814 29.8851 70.4013 29.5954 75.8289 30.8056C77.2115 31.1131 78.5742 31.4498 79.9934 31.6164C86.4516 32.3725 90.1612 36.5085 92.4106 42.2617C94.1242 46.6448 94.4696 51.2427 94.1519 55.9088C94.1176 56.4144 94.1021 56.9221 94.05 57.9846C97.9212 53.6283 99.5098 48.9332 99.6991 43.6653C99.8883 38.4031 98.2168 33.7515 94.8316 29.3863C99.4444 31.8714 102.838 39.7586 102.281 46.8641C101.542 56.2712 96.3371 62.5042 87.7235 66.6648C88.2449 64.9078 88.6778 63.5131 89.073 62.1072C90.904 55.5957 91.039 49.1222 88.4453 42.7728C86.5678 38.1794 83.4472 35.2983 78.179 35.3285C76.8683 35.3364 75.5676 34.6642 74.2414 34.4349C68.7385 33.4798 63.9464 34.4986 60.7648 39.6479C60.3475 40.3235 59.7553 40.3715 59.1342 40.4923C56.0324 41.0929 52.9384 41.7472 49.8211 42.2572C48.703 42.4406 48.2989 42.9932 48.1506 44.0165C47.7521 46.7735 48.3764 49.177 50.3779 51.1723C51.5823 52.3723 52.9638 53.3197 54.3874 54.2189C56.1465 55.3306 57.7737 56.6023 59.0922 58.2408C62.1264 62.0132 62.7895 66.1783 61.0172 70.6912C58.8995 76.0865 54.7428 79.755 50.1642 83.7612Z" fill="white" stroke="#003D4F" stroke-width="0.3"/>
<path d="M51.9996 15.7582C49.2056 14.7918 47.0934 12.9397 45.5016 10.4892C43.6485 7.63944 43.8854 4.26512 45.9953 2.02937C48.0964 -0.196315 51.4882 -0.643689 54.3631 0.947844C55.5022 1.57864 56.5572 2.36155 57.342 3.40169C58.2343 4.58499 58.9438 4.81092 60.2966 3.84794C62.9501 1.95891 65.9932 1.45338 69.1393 2.44095C73.7577 3.88933 75.8975 8.00069 74.5901 12.7294C72.23 21.2597 63.3906 26.0656 54.569 23.661C51.6354 22.8613 48.9831 21.6064 46.8709 19.2857C48.662 19.9377 50.4266 20.6826 52.2498 21.2251C59.1597 23.2807 66.4338 20.3929 70.119 14.1722C70.9592 12.754 71.5127 11.2017 71.2138 9.53407C70.6548 6.41587 67.264 4.96862 63.8102 6.18659C61.8032 6.89344 60.5257 8.4078 59.2073 9.92328C58.8354 10.3516 58.6737 10.978 57.9586 11.2229C57.1904 9.1415 56.1287 7.25022 54.4483 5.75935C53.6568 5.05697 52.8078 4.52683 51.7904 4.23604C49.0893 3.4632 46.9484 5.39138 47.4787 8.16846C47.8805 10.2767 48.9831 12.0103 50.3757 13.5951C50.9635 14.265 51.8048 14.7314 52.0749 15.6687L52.0019 15.757L51.9996 15.7582Z" fill="#F6424F"/>
<path d="M124.63 67.68V68.032H116.854V67.68C118.422 67.168 118.55 66.208 118.55 63.872V49.888C118.55 47.552 118.422 46.624 116.854 46.08V45.76H125.622C139.062 45.76 138.614 59.264 124.566 59.264V59.04C132.726 58.048 133.654 46.912 124.566 46.912H122.966V63.872C122.966 66.208 123.094 67.168 124.63 67.68ZM141.885 58.368C143.101 63.552 146.333 65.6 149.341 65.6C152.029 65.6 154.557 63.968 155.325 61.536H155.581C153.949 66.528 150.557 68.64 147.165 68.64C142.557 68.64 137.981 64.736 137.981 58.944C137.981 53.728 141.277 49.504 146.845 49.504C152.253 49.504 155.645 52.832 155.869 57.76V57.792L155.901 58.368H141.885ZM151.805 57.216C151.485 52.8 148.733 50.624 146.173 50.624C143.581 50.624 141.149 52.864 141.725 57.216H151.805ZM168.944 64.864L169.136 65.024C167.856 67.232 165.68 68.384 163.792 68.384C161.744 68.384 159.984 67.008 159.984 64.256V51.04H158.192V49.888C161.008 49.888 162.416 47.264 163.408 44.32H163.568L164.208 49.888H168.112V51.04H164.24V63.456C164.24 65.28 165.232 66.144 166.384 66.144C167.248 66.144 168.176 65.696 168.944 64.864ZM177.268 44V63.872C177.268 66.208 177.396 67.136 178.932 67.68V68H171.316V67.68C172.884 67.136 173.012 66.208 173.012 63.872V48.128C173.012 45.792 172.884 44.864 171.316 44.32V44L175.38 42.656C175.604 42.56 175.86 42.528 176.052 42.528C176.756 42.528 177.268 43.008 177.268 44ZM200.711 54.656C200.711 59.232 197.767 62.72 193.671 66.176V66.208C194.375 67.84 194.631 69.28 194.631 70.368C194.631 74.048 191.143 75.424 187.783 75.424C180.135 75.424 180.647 70.528 183.783 66.848H184.007C185.063 72.064 187.783 74.24 189.671 74.24C191.431 74.24 192.487 72.384 190.919 69.376L183.399 54.016C182.279 51.68 181.639 50.56 180.615 50.208V49.888H188.231V50.208C186.695 50.752 186.503 51.616 187.687 53.984L193.223 65.28C196.135 61.92 197.831 59.328 197.831 56.448C197.831 54.496 196.615 53.12 194.567 53.12C193.671 53.12 192.615 53.376 191.431 53.952L191.303 53.824C192.487 50.912 194.631 49.536 196.583 49.536C198.759 49.536 200.711 51.296 200.711 54.656Z" fill="white"/>
</svg>
